<mxfile host="app.diagrams.net" agent="Mozilla/5.0 (Windows NT 10.0; Win64; x64) AppleWebKit/537.36 (KHTML, like Gecko) Chrome/131.0.0.0 Safari/537.36" version="26.0.6" pages="4">
  <diagram id="yuFHp9OSP1fffrVb1BsY" name="AS IS">
    <mxGraphModel dx="662" dy="389" grid="1" gridSize="10" guides="1" tooltips="1" connect="1" arrows="1" fold="1" page="1" pageScale="1" pageWidth="827" pageHeight="1169" math="0" shadow="0">
      <root>
        <mxCell id="0" />
        <mxCell id="1" parent="0" />
        <mxCell id="nLme78ujnRbnWH6pJYhi-1" value="" style="group" vertex="1" connectable="0" parent="1">
          <mxGeometry x="280" y="130" width="140" height="70" as="geometry" />
        </mxCell>
        <mxCell id="nLme78ujnRbnWH6pJYhi-2" value="&lt;span style=&quot;background-color: rgb(255, 255, 255);&quot;&gt;Обработка&lt;/span&gt;&lt;br style=&quot;background-color: rgb(255, 255, 255);&quot;&gt;&lt;span style=&quot;background-color: rgb(255, 255, 255);&quot;&gt;обращения&amp;nbsp;&lt;/span&gt;&lt;br style=&quot;background-color: rgb(255, 255, 255);&quot;&gt;&lt;span style=&quot;background-color: rgb(255, 255, 255);&quot;&gt;клиента&lt;/span&gt;" style="rounded=1;whiteSpace=wrap;html=1;" vertex="1" parent="nLme78ujnRbnWH6pJYhi-1">
          <mxGeometry width="140" height="70" as="geometry" />
        </mxCell>
        <mxCell id="nLme78ujnRbnWH6pJYhi-3" value="1" style="text;html=1;align=center;verticalAlign=middle;whiteSpace=wrap;rounded=0;" vertex="1" parent="nLme78ujnRbnWH6pJYhi-1">
          <mxGeometry x="115.5" y="4.666666666666666" width="23.333333333333332" height="11.666666666666666" as="geometry" />
        </mxCell>
        <mxCell id="nLme78ujnRbnWH6pJYhi-4" value="" style="group" vertex="1" connectable="0" parent="1">
          <mxGeometry x="490" y="130" width="100" height="70" as="geometry" />
        </mxCell>
        <mxCell id="nLme78ujnRbnWH6pJYhi-5" value="Разработчик" style="html=1;dashed=0;whiteSpace=wrap;" vertex="1" parent="nLme78ujnRbnWH6pJYhi-4">
          <mxGeometry width="100" height="70" as="geometry" />
        </mxCell>
        <mxCell id="nLme78ujnRbnWH6pJYhi-6" value="Е3" style="text;html=1;align=center;verticalAlign=middle;whiteSpace=wrap;rounded=0;" vertex="1" parent="nLme78ujnRbnWH6pJYhi-4">
          <mxGeometry x="1" y="3.5" width="20" height="11.666666666666668" as="geometry" />
        </mxCell>
        <mxCell id="nLme78ujnRbnWH6pJYhi-7" style="edgeStyle=orthogonalEdgeStyle;rounded=0;orthogonalLoop=1;jettySize=auto;html=1;entryX=0;entryY=0.5;entryDx=0;entryDy=0;fontSize=9;" edge="1" parent="1" source="nLme78ujnRbnWH6pJYhi-2" target="nLme78ujnRbnWH6pJYhi-5">
          <mxGeometry relative="1" as="geometry" />
        </mxCell>
        <mxCell id="nLme78ujnRbnWH6pJYhi-10" value="ТЗ" style="edgeLabel;html=1;align=center;verticalAlign=middle;resizable=0;points=[];fontSize=9;" vertex="1" connectable="0" parent="nLme78ujnRbnWH6pJYhi-7">
          <mxGeometry x="-0.3143" y="3" relative="1" as="geometry">
            <mxPoint x="10" y="1" as="offset" />
          </mxGeometry>
        </mxCell>
        <mxCell id="nLme78ujnRbnWH6pJYhi-9" style="edgeStyle=orthogonalEdgeStyle;rounded=0;orthogonalLoop=1;jettySize=auto;html=1;exitX=0;exitY=0.75;exitDx=0;exitDy=0;entryX=1;entryY=0.75;entryDx=0;entryDy=0;fontSize=9;" edge="1" parent="1" source="nLme78ujnRbnWH6pJYhi-5" target="nLme78ujnRbnWH6pJYhi-2">
          <mxGeometry relative="1" as="geometry" />
        </mxCell>
        <mxCell id="nLme78ujnRbnWH6pJYhi-11" value="ПМ" style="edgeLabel;html=1;align=center;verticalAlign=middle;resizable=0;points=[];fontSize=9;" vertex="1" connectable="0" parent="nLme78ujnRbnWH6pJYhi-9">
          <mxGeometry x="-0.1714" y="3" relative="1" as="geometry">
            <mxPoint x="-3" y="-2" as="offset" />
          </mxGeometry>
        </mxCell>
        <mxCell id="nLme78ujnRbnWH6pJYhi-12" value="" style="group" vertex="1" connectable="0" parent="1">
          <mxGeometry x="80" y="130" width="100" height="80" as="geometry" />
        </mxCell>
        <mxCell id="nLme78ujnRbnWH6pJYhi-13" value="Клиент" style="html=1;dashed=0;whiteSpace=wrap;" vertex="1" parent="nLme78ujnRbnWH6pJYhi-12">
          <mxGeometry width="100" height="70" as="geometry" />
        </mxCell>
        <mxCell id="nLme78ujnRbnWH6pJYhi-14" value="Е1" style="text;html=1;align=center;verticalAlign=middle;whiteSpace=wrap;rounded=0;" vertex="1" parent="nLme78ujnRbnWH6pJYhi-12">
          <mxGeometry x="1" y="4.800000000000001" width="20" height="16" as="geometry" />
        </mxCell>
        <mxCell id="nLme78ujnRbnWH6pJYhi-16" style="edgeStyle=orthogonalEdgeStyle;rounded=0;orthogonalLoop=1;jettySize=auto;html=1;exitX=0.5;exitY=1;exitDx=0;exitDy=0;" edge="1" parent="nLme78ujnRbnWH6pJYhi-12" source="nLme78ujnRbnWH6pJYhi-13" target="nLme78ujnRbnWH6pJYhi-13">
          <mxGeometry relative="1" as="geometry" />
        </mxCell>
        <mxCell id="nLme78ujnRbnWH6pJYhi-17" style="edgeStyle=orthogonalEdgeStyle;rounded=0;orthogonalLoop=1;jettySize=auto;html=1;exitX=1;exitY=0.25;exitDx=0;exitDy=0;entryX=0;entryY=0.25;entryDx=0;entryDy=0;" edge="1" parent="1" source="nLme78ujnRbnWH6pJYhi-13" target="nLme78ujnRbnWH6pJYhi-2">
          <mxGeometry relative="1" as="geometry" />
        </mxCell>
        <mxCell id="nLme78ujnRbnWH6pJYhi-22" value="обращение" style="edgeLabel;html=1;align=center;verticalAlign=middle;resizable=0;points=[];fontSize=9;" vertex="1" connectable="0" parent="nLme78ujnRbnWH6pJYhi-17">
          <mxGeometry x="-0.1255" y="3" relative="1" as="geometry">
            <mxPoint as="offset" />
          </mxGeometry>
        </mxCell>
        <mxCell id="nLme78ujnRbnWH6pJYhi-19" style="edgeStyle=orthogonalEdgeStyle;rounded=0;orthogonalLoop=1;jettySize=auto;html=1;exitX=1;exitY=0.5;exitDx=0;exitDy=0;entryX=0;entryY=0.5;entryDx=0;entryDy=0;" edge="1" parent="1" source="nLme78ujnRbnWH6pJYhi-13" target="nLme78ujnRbnWH6pJYhi-2">
          <mxGeometry relative="1" as="geometry" />
        </mxCell>
        <mxCell id="nLme78ujnRbnWH6pJYhi-23" value="данные о клиенте" style="edgeLabel;html=1;align=center;verticalAlign=middle;resizable=0;points=[];fontSize=9;" vertex="1" connectable="0" parent="nLme78ujnRbnWH6pJYhi-19">
          <mxGeometry x="-0.3738" y="-2" relative="1" as="geometry">
            <mxPoint x="17" as="offset" />
          </mxGeometry>
        </mxCell>
        <mxCell id="nLme78ujnRbnWH6pJYhi-20" style="edgeStyle=orthogonalEdgeStyle;rounded=0;orthogonalLoop=1;jettySize=auto;html=1;exitX=0;exitY=0.75;exitDx=0;exitDy=0;entryX=1;entryY=0.75;entryDx=0;entryDy=0;" edge="1" parent="1" source="nLme78ujnRbnWH6pJYhi-2" target="nLme78ujnRbnWH6pJYhi-13">
          <mxGeometry relative="1" as="geometry" />
        </mxCell>
        <mxCell id="nLme78ujnRbnWH6pJYhi-33" value="Уведомление" style="edgeLabel;html=1;align=center;verticalAlign=middle;resizable=0;points=[];fontSize=9;" vertex="1" connectable="0" parent="nLme78ujnRbnWH6pJYhi-20">
          <mxGeometry x="0.0286" y="-2" relative="1" as="geometry">
            <mxPoint as="offset" />
          </mxGeometry>
        </mxCell>
        <mxCell id="nLme78ujnRbnWH6pJYhi-21" style="edgeStyle=orthogonalEdgeStyle;rounded=0;orthogonalLoop=1;jettySize=auto;html=1;exitX=0.091;exitY=0.981;exitDx=0;exitDy=0;entryX=1;entryY=1;entryDx=0;entryDy=0;exitPerimeter=0;" edge="1" parent="1" source="nLme78ujnRbnWH6pJYhi-2" target="nLme78ujnRbnWH6pJYhi-13">
          <mxGeometry relative="1" as="geometry">
            <Array as="points">
              <mxPoint x="293" y="200" />
            </Array>
          </mxGeometry>
        </mxCell>
        <mxCell id="nLme78ujnRbnWH6pJYhi-34" value="ПМ" style="edgeLabel;html=1;align=center;verticalAlign=middle;resizable=0;points=[];fontSize=9;" vertex="1" connectable="0" parent="nLme78ujnRbnWH6pJYhi-21">
          <mxGeometry x="0.1081" y="2" relative="1" as="geometry">
            <mxPoint y="-2" as="offset" />
          </mxGeometry>
        </mxCell>
        <mxCell id="nLme78ujnRbnWH6pJYhi-24" value="" style="group" vertex="1" connectable="0" parent="1">
          <mxGeometry x="280" y="30" width="140" height="50" as="geometry" />
        </mxCell>
        <mxCell id="nLme78ujnRbnWH6pJYhi-25" value="Тех поддержка" style="html=1;dashed=0;whiteSpace=wrap;" vertex="1" parent="nLme78ujnRbnWH6pJYhi-24">
          <mxGeometry width="139.99999999999997" height="50" as="geometry" />
        </mxCell>
        <mxCell id="nLme78ujnRbnWH6pJYhi-26" value="Е2" style="text;html=1;align=center;verticalAlign=middle;whiteSpace=wrap;rounded=0;" vertex="1" parent="nLme78ujnRbnWH6pJYhi-24">
          <mxGeometry x="1.3999999999999997" y="3" width="27.999999999999996" height="10" as="geometry" />
        </mxCell>
        <mxCell id="nLme78ujnRbnWH6pJYhi-27" style="edgeStyle=orthogonalEdgeStyle;rounded=0;orthogonalLoop=1;jettySize=auto;html=1;exitX=0.25;exitY=1;exitDx=0;exitDy=0;entryX=0.25;entryY=0;entryDx=0;entryDy=0;" edge="1" parent="1" source="nLme78ujnRbnWH6pJYhi-25" target="nLme78ujnRbnWH6pJYhi-2">
          <mxGeometry relative="1" as="geometry" />
        </mxCell>
        <mxCell id="nLme78ujnRbnWH6pJYhi-29" value="ТЗ" style="edgeLabel;html=1;align=center;verticalAlign=middle;resizable=0;points=[];" vertex="1" connectable="0" parent="nLme78ujnRbnWH6pJYhi-27">
          <mxGeometry x="-0.3357" y="1" relative="1" as="geometry">
            <mxPoint as="offset" />
          </mxGeometry>
        </mxCell>
        <mxCell id="nLme78ujnRbnWH6pJYhi-28" style="edgeStyle=orthogonalEdgeStyle;rounded=0;orthogonalLoop=1;jettySize=auto;html=1;exitX=0.5;exitY=0;exitDx=0;exitDy=0;entryX=0.5;entryY=1;entryDx=0;entryDy=0;" edge="1" parent="1" source="nLme78ujnRbnWH6pJYhi-2" target="nLme78ujnRbnWH6pJYhi-25">
          <mxGeometry relative="1" as="geometry" />
        </mxCell>
        <mxCell id="nLme78ujnRbnWH6pJYhi-30" value="обращение" style="edgeLabel;html=1;align=center;verticalAlign=middle;resizable=0;points=[];" vertex="1" connectable="0" parent="nLme78ujnRbnWH6pJYhi-28">
          <mxGeometry x="-0.0643" relative="1" as="geometry">
            <mxPoint x="10" as="offset" />
          </mxGeometry>
        </mxCell>
      </root>
    </mxGraphModel>
  </diagram>
  <diagram name="декомпозиция AS IS" id="jgMzz6olf2jLZEFBH5ND">
    <mxGraphModel dx="993" dy="584" grid="1" gridSize="10" guides="1" tooltips="1" connect="1" arrows="1" fold="1" page="1" pageScale="1" pageWidth="827" pageHeight="1169" math="0" shadow="0">
      <root>
        <mxCell id="0" />
        <mxCell id="1" parent="0" />
        <mxCell id="mBDCCcmtrXDYQbuCWVLs-4" value="" style="endArrow=classic;html=1;rounded=0;exitX=1;exitY=0.5;exitDx=0;exitDy=0;entryX=0;entryY=0.75;entryDx=0;entryDy=0;" edge="1" parent="1" target="mBDCCcmtrXDYQbuCWVLs-7">
          <mxGeometry width="50" height="50" relative="1" as="geometry">
            <mxPoint x="150" y="105" as="sourcePoint" />
            <mxPoint x="240" y="102.5" as="targetPoint" />
          </mxGeometry>
        </mxCell>
        <mxCell id="mBDCCcmtrXDYQbuCWVLs-5" value="обращение" style="edgeLabel;html=1;align=center;verticalAlign=middle;resizable=0;points=[];fontSize=9;" vertex="1" connectable="0" parent="mBDCCcmtrXDYQbuCWVLs-4">
          <mxGeometry x="-0.3" y="-2" relative="1" as="geometry">
            <mxPoint x="9" y="-1" as="offset" />
          </mxGeometry>
        </mxCell>
        <mxCell id="mBDCCcmtrXDYQbuCWVLs-3" value="" style="endArrow=classic;html=1;rounded=0;exitX=1;exitY=0.25;exitDx=0;exitDy=0;entryX=-0.01;entryY=0.179;entryDx=0;entryDy=0;entryPerimeter=0;" edge="1" parent="1" source="BnVpLqMBDy6rWNfeqESE-5" target="mBDCCcmtrXDYQbuCWVLs-7">
          <mxGeometry width="50" height="50" relative="1" as="geometry">
            <mxPoint x="160" y="82.5" as="sourcePoint" />
            <mxPoint x="240" y="81.5" as="targetPoint" />
          </mxGeometry>
        </mxCell>
        <mxCell id="mBDCCcmtrXDYQbuCWVLs-6" value="Данные о&lt;br&gt;клиенте" style="edgeLabel;html=1;align=center;verticalAlign=middle;resizable=0;points=[];fontSize=9;" vertex="1" connectable="0" parent="mBDCCcmtrXDYQbuCWVLs-3">
          <mxGeometry x="-0.275" y="3" relative="1" as="geometry">
            <mxPoint x="7" y="1" as="offset" />
          </mxGeometry>
        </mxCell>
        <mxCell id="BnVpLqMBDy6rWNfeqESE-4" value="" style="group" vertex="1" connectable="0" parent="1">
          <mxGeometry x="50" y="60" width="100" height="65" as="geometry" />
        </mxCell>
        <mxCell id="BnVpLqMBDy6rWNfeqESE-5" value="Клиент" style="html=1;dashed=0;whiteSpace=wrap;" vertex="1" parent="BnVpLqMBDy6rWNfeqESE-4">
          <mxGeometry width="100" height="65" as="geometry" />
        </mxCell>
        <mxCell id="BnVpLqMBDy6rWNfeqESE-6" value="Е1" style="text;html=1;align=center;verticalAlign=middle;whiteSpace=wrap;rounded=0;" vertex="1" parent="BnVpLqMBDy6rWNfeqESE-4">
          <mxGeometry x="1" y="3.9000000000000004" width="20" height="13" as="geometry" />
        </mxCell>
        <mxCell id="VkxX3-nq8TyR26TCGK2I-2" value="" style="group" vertex="1" connectable="0" parent="1">
          <mxGeometry x="250" y="66.25" width="110" height="52.5" as="geometry" />
        </mxCell>
        <mxCell id="mBDCCcmtrXDYQbuCWVLs-7" value="Обработка&amp;nbsp;&lt;br&gt;обращений" style="rounded=1;whiteSpace=wrap;html=1;" vertex="1" parent="VkxX3-nq8TyR26TCGK2I-2">
          <mxGeometry width="110" height="52.5" as="geometry" />
        </mxCell>
        <mxCell id="BnVpLqMBDy6rWNfeqESE-7" value="1" style="text;html=1;align=center;verticalAlign=middle;whiteSpace=wrap;rounded=0;" vertex="1" parent="VkxX3-nq8TyR26TCGK2I-2">
          <mxGeometry x="90.75" y="3.5" width="18.333333333333332" height="8.75" as="geometry" />
        </mxCell>
        <mxCell id="VkxX3-nq8TyR26TCGK2I-3" value="" style="group" vertex="1" connectable="0" parent="1">
          <mxGeometry x="255" y="230" width="110" height="50" as="geometry" />
        </mxCell>
        <mxCell id="VkxX3-nq8TyR26TCGK2I-4" value="&lt;span style=&quot;background-color: rgb(255, 255, 255);&quot;&gt;Распределения&lt;/span&gt;&lt;br style=&quot;background-color: rgb(255, 255, 255);&quot;&gt;&lt;span style=&quot;background-color: rgb(255, 255, 255);&quot;&gt;обращения&lt;/span&gt;" style="rounded=1;whiteSpace=wrap;html=1;" vertex="1" parent="VkxX3-nq8TyR26TCGK2I-3">
          <mxGeometry width="110" height="50" as="geometry" />
        </mxCell>
        <mxCell id="VkxX3-nq8TyR26TCGK2I-5" value="2" style="text;html=1;align=center;verticalAlign=middle;whiteSpace=wrap;rounded=0;" vertex="1" parent="VkxX3-nq8TyR26TCGK2I-3">
          <mxGeometry x="90.75" y="3.3333333333333335" width="18.333333333333332" height="8.333333333333334" as="geometry" />
        </mxCell>
        <mxCell id="VkxX3-nq8TyR26TCGK2I-6" value="" style="group" vertex="1" connectable="0" parent="1">
          <mxGeometry x="250" y="350" width="120" height="70" as="geometry" />
        </mxCell>
        <mxCell id="VkxX3-nq8TyR26TCGK2I-7" value="&lt;span style=&quot;background-color: rgb(255, 255, 255);&quot;&gt;Выполнения&lt;/span&gt;&lt;br style=&quot;background-color: rgb(255, 255, 255);&quot;&gt;&lt;span style=&quot;background-color: rgb(255, 255, 255);&quot;&gt;обращения&lt;/span&gt;" style="rounded=1;whiteSpace=wrap;html=1;" vertex="1" parent="VkxX3-nq8TyR26TCGK2I-6">
          <mxGeometry width="120" height="70" as="geometry" />
        </mxCell>
        <mxCell id="VkxX3-nq8TyR26TCGK2I-8" value="3" style="text;html=1;align=center;verticalAlign=middle;whiteSpace=wrap;rounded=0;" vertex="1" parent="VkxX3-nq8TyR26TCGK2I-6">
          <mxGeometry x="99" y="4" width="20" height="10" as="geometry" />
        </mxCell>
        <mxCell id="VkxX3-nq8TyR26TCGK2I-10" value="" style="group" vertex="1" connectable="0" parent="1">
          <mxGeometry x="250" y="460" width="100" height="50" as="geometry" />
        </mxCell>
        <mxCell id="VkxX3-nq8TyR26TCGK2I-11" value="&lt;span style=&quot;background-color: rgb(255, 255, 255);&quot;&gt;Оповещение&lt;/span&gt;" style="rounded=1;whiteSpace=wrap;html=1;" vertex="1" parent="VkxX3-nq8TyR26TCGK2I-10">
          <mxGeometry width="100" height="50" as="geometry" />
        </mxCell>
        <mxCell id="VkxX3-nq8TyR26TCGK2I-12" value="4" style="text;html=1;align=center;verticalAlign=middle;whiteSpace=wrap;rounded=0;" vertex="1" parent="VkxX3-nq8TyR26TCGK2I-10">
          <mxGeometry x="82.5" y="3.3333333333333335" width="16.666666666666668" height="8.333333333333334" as="geometry" />
        </mxCell>
        <mxCell id="VkxX3-nq8TyR26TCGK2I-13" style="edgeStyle=orthogonalEdgeStyle;rounded=0;orthogonalLoop=1;jettySize=auto;html=1;entryX=0.109;entryY=1.028;entryDx=0;entryDy=0;entryPerimeter=0;" edge="1" parent="1" source="VkxX3-nq8TyR26TCGK2I-11" target="BnVpLqMBDy6rWNfeqESE-5">
          <mxGeometry relative="1" as="geometry">
            <mxPoint x="50" y="270" as="targetPoint" />
            <Array as="points">
              <mxPoint x="60" y="480" />
              <mxPoint x="60" y="270" />
              <mxPoint x="61" y="270" />
            </Array>
          </mxGeometry>
        </mxCell>
        <mxCell id="VkxX3-nq8TyR26TCGK2I-14" value="Уведомление" style="edgeLabel;html=1;align=center;verticalAlign=middle;resizable=0;points=[];fontSize=9;" vertex="1" connectable="0" parent="VkxX3-nq8TyR26TCGK2I-13">
          <mxGeometry x="0.1717" y="-4" relative="1" as="geometry">
            <mxPoint as="offset" />
          </mxGeometry>
        </mxCell>
        <mxCell id="vmv4RQtA2IhBP6qS8-SP-15" value="" style="group" vertex="1" connectable="0" parent="1">
          <mxGeometry x="255" y="150" width="100" height="30" as="geometry" />
        </mxCell>
        <mxCell id="Gwz2AhrhDXhZLsGRXz8g-1" value="D1" style="html=1;dashed=0;whiteSpace=wrap;shape=mxgraph.dfd.dataStoreID;align=left;spacingLeft=3;points=[[0,0],[0.5,0],[1,0],[0,0.5],[1,0.5],[0,1],[0.5,1],[1,1]];" vertex="1" parent="vmv4RQtA2IhBP6qS8-SP-15">
          <mxGeometry y="5" width="100" height="30" as="geometry" />
        </mxCell>
        <mxCell id="vmv4RQtA2IhBP6qS8-SP-14" value="Обращения" style="text;html=1;align=center;verticalAlign=middle;whiteSpace=wrap;rounded=0;" vertex="1" parent="vmv4RQtA2IhBP6qS8-SP-15">
          <mxGeometry x="40" y="5" width="50" height="20" as="geometry" />
        </mxCell>
        <mxCell id="b0Xx3AtlvpZaK0S-1hgN-1" value="" style="group" vertex="1" connectable="0" parent="1">
          <mxGeometry x="490" y="350" width="90" height="50" as="geometry" />
        </mxCell>
        <mxCell id="b0Xx3AtlvpZaK0S-1hgN-2" value="Исполнитель" style="html=1;dashed=0;whiteSpace=wrap;" vertex="1" parent="b0Xx3AtlvpZaK0S-1hgN-1">
          <mxGeometry width="90" height="50" as="geometry" />
        </mxCell>
        <mxCell id="b0Xx3AtlvpZaK0S-1hgN-3" value="Е3" style="text;html=1;align=center;verticalAlign=middle;whiteSpace=wrap;rounded=0;" vertex="1" parent="b0Xx3AtlvpZaK0S-1hgN-1">
          <mxGeometry x="0.9" y="2.5" width="18" height="8.333333333333332" as="geometry" />
        </mxCell>
        <mxCell id="b0Xx3AtlvpZaK0S-1hgN-12" style="edgeStyle=orthogonalEdgeStyle;rounded=0;orthogonalLoop=1;jettySize=auto;html=1;entryX=0.75;entryY=1;entryDx=0;entryDy=0;" edge="1" parent="1" source="VkxX3-nq8TyR26TCGK2I-7" target="BnVpLqMBDy6rWNfeqESE-5">
          <mxGeometry relative="1" as="geometry">
            <mxPoint x="90" y="190" as="targetPoint" />
            <Array as="points">
              <mxPoint x="125" y="370" />
            </Array>
          </mxGeometry>
        </mxCell>
        <mxCell id="b0Xx3AtlvpZaK0S-1hgN-14" value="ПМ" style="edgeLabel;html=1;align=center;verticalAlign=middle;resizable=0;points=[];" vertex="1" connectable="0" parent="b0Xx3AtlvpZaK0S-1hgN-12">
          <mxGeometry x="-0.4244" y="-1" relative="1" as="geometry">
            <mxPoint as="offset" />
          </mxGeometry>
        </mxCell>
        <mxCell id="b0Xx3AtlvpZaK0S-1hgN-19" value="" style="group" vertex="1" connectable="0" parent="1">
          <mxGeometry x="460" y="429.17" width="80" height="42.5" as="geometry" />
        </mxCell>
        <mxCell id="b0Xx3AtlvpZaK0S-1hgN-20" value="" style="group" vertex="1" connectable="0" parent="b0Xx3AtlvpZaK0S-1hgN-19">
          <mxGeometry width="80" height="42.5" as="geometry" />
        </mxCell>
        <mxCell id="b0Xx3AtlvpZaK0S-1hgN-21" value="" style="html=1;dashed=0;whiteSpace=wrap;" vertex="1" parent="b0Xx3AtlvpZaK0S-1hgN-20">
          <mxGeometry x="10" width="70" height="40" as="geometry" />
        </mxCell>
        <mxCell id="b0Xx3AtlvpZaK0S-1hgN-22" value="Е2" style="text;html=1;align=center;verticalAlign=middle;whiteSpace=wrap;rounded=0;" vertex="1" parent="b0Xx3AtlvpZaK0S-1hgN-20">
          <mxGeometry x="11.8" y="2.55" width="16" height="8.5" as="geometry" />
        </mxCell>
        <mxCell id="b0Xx3AtlvpZaK0S-1hgN-23" style="edgeStyle=orthogonalEdgeStyle;rounded=0;orthogonalLoop=1;jettySize=auto;html=1;entryX=0;entryY=0.5;entryDx=0;entryDy=0;" edge="1" parent="1" source="VkxX3-nq8TyR26TCGK2I-7" target="b0Xx3AtlvpZaK0S-1hgN-21">
          <mxGeometry relative="1" as="geometry">
            <mxPoint x="480" y="450" as="targetPoint" />
            <Array as="points">
              <mxPoint x="300" y="450" />
            </Array>
          </mxGeometry>
        </mxCell>
        <mxCell id="Ksd5cOflbBoZxAIXK9I4-9" value="&lt;font style=&quot;color: rgb(0, 0, 0);&quot;&gt;Завершение&lt;br&gt;работ&lt;/font&gt;" style="edgeLabel;html=1;align=center;verticalAlign=middle;resizable=0;points=[];fontColor=#FF3333;" vertex="1" connectable="0" parent="b0Xx3AtlvpZaK0S-1hgN-23">
          <mxGeometry x="0.1436" relative="1" as="geometry">
            <mxPoint as="offset" />
          </mxGeometry>
        </mxCell>
        <mxCell id="Ksd5cOflbBoZxAIXK9I4-6" style="edgeStyle=orthogonalEdgeStyle;rounded=0;orthogonalLoop=1;jettySize=auto;html=1;exitX=0.5;exitY=1;exitDx=0;exitDy=0;entryX=1;entryY=0.5;entryDx=0;entryDy=0;" edge="1" parent="1" source="b0Xx3AtlvpZaK0S-1hgN-21" target="VkxX3-nq8TyR26TCGK2I-11">
          <mxGeometry relative="1" as="geometry" />
        </mxCell>
        <mxCell id="Ksd5cOflbBoZxAIXK9I4-7" value="Сообщение&lt;br&gt;Клиенту" style="edgeLabel;html=1;align=center;verticalAlign=middle;resizable=0;points=[];fontSize=9;" vertex="1" connectable="0" parent="Ksd5cOflbBoZxAIXK9I4-6">
          <mxGeometry x="0.071" relative="1" as="geometry">
            <mxPoint as="offset" />
          </mxGeometry>
        </mxCell>
        <mxCell id="iV6hx_BpNf0MHb6LXjf--2" style="edgeStyle=orthogonalEdgeStyle;rounded=0;orthogonalLoop=1;jettySize=auto;html=1;entryX=0.5;entryY=0;entryDx=0;entryDy=0;exitX=0.555;exitY=0.998;exitDx=0;exitDy=0;exitPerimeter=0;" edge="1" parent="1" source="Gwz2AhrhDXhZLsGRXz8g-1" target="VkxX3-nq8TyR26TCGK2I-4">
          <mxGeometry relative="1" as="geometry">
            <mxPoint x="310" y="200" as="sourcePoint" />
          </mxGeometry>
        </mxCell>
        <mxCell id="gm3NrKbeL-20PIoo7dfq-1" value="&lt;span style=&quot;text-wrap-mode: wrap; background-color: rgb(251, 251, 251);&quot;&gt;Данные о обращения&lt;/span&gt;" style="edgeLabel;html=1;align=center;verticalAlign=middle;resizable=0;points=[];fontSize=9;" vertex="1" connectable="0" parent="iV6hx_BpNf0MHb6LXjf--2">
          <mxGeometry x="-0.3475" y="2" relative="1" as="geometry">
            <mxPoint as="offset" />
          </mxGeometry>
        </mxCell>
        <mxCell id="iV6hx_BpNf0MHb6LXjf--3" style="edgeStyle=orthogonalEdgeStyle;rounded=0;orthogonalLoop=1;jettySize=auto;html=1;entryX=0.5;entryY=0;entryDx=0;entryDy=0;" edge="1" parent="1">
          <mxGeometry relative="1" as="geometry">
            <mxPoint x="334" y="280" as="sourcePoint" />
            <mxPoint x="334" y="350" as="targetPoint" />
          </mxGeometry>
        </mxCell>
        <mxCell id="iV6hx_BpNf0MHb6LXjf--4" value="ТЗ" style="edgeLabel;html=1;align=center;verticalAlign=middle;resizable=0;points=[];" vertex="1" connectable="0" parent="iV6hx_BpNf0MHb6LXjf--3">
          <mxGeometry x="-0.0711" y="2" relative="1" as="geometry">
            <mxPoint as="offset" />
          </mxGeometry>
        </mxCell>
        <mxCell id="iV6hx_BpNf0MHb6LXjf--8" style="edgeStyle=orthogonalEdgeStyle;rounded=0;orthogonalLoop=1;jettySize=auto;html=1;" edge="1" parent="1" source="VkxX3-nq8TyR26TCGK2I-7">
          <mxGeometry relative="1" as="geometry">
            <mxPoint x="255" y="170" as="targetPoint" />
            <Array as="points">
              <mxPoint x="210" y="350" />
              <mxPoint x="210" y="170" />
              <mxPoint x="255" y="170" />
            </Array>
          </mxGeometry>
        </mxCell>
        <mxCell id="iV6hx_BpNf0MHb6LXjf--9" value="Смена&amp;nbsp;&lt;br&gt;статуса" style="edgeLabel;html=1;align=center;verticalAlign=middle;resizable=0;points=[];" vertex="1" connectable="0" parent="iV6hx_BpNf0MHb6LXjf--8">
          <mxGeometry x="-0.0698" y="-2" relative="1" as="geometry">
            <mxPoint as="offset" />
          </mxGeometry>
        </mxCell>
        <mxCell id="ol0s2Zcjhh9Ue5mnE4Wr-1" style="edgeStyle=orthogonalEdgeStyle;rounded=0;orthogonalLoop=1;jettySize=auto;html=1;entryX=0.5;entryY=0;entryDx=0;entryDy=0;" edge="1" parent="1" source="mBDCCcmtrXDYQbuCWVLs-7" target="Gwz2AhrhDXhZLsGRXz8g-1">
          <mxGeometry relative="1" as="geometry" />
        </mxCell>
        <mxCell id="ol0s2Zcjhh9Ue5mnE4Wr-2" value="&lt;span style=&quot;font-size: 9px; text-wrap-mode: wrap; background-color: rgb(251, 251, 251);&quot;&gt;Данные о обращения&lt;/span&gt;" style="edgeLabel;html=1;align=center;verticalAlign=middle;resizable=0;points=[];" vertex="1" connectable="0" parent="ol0s2Zcjhh9Ue5mnE4Wr-1">
          <mxGeometry x="-0.6713" relative="1" as="geometry">
            <mxPoint y="9" as="offset" />
          </mxGeometry>
        </mxCell>
        <mxCell id="Mb2tMocg_w37pkCAtzsw-1" value="" style="group" vertex="1" connectable="0" parent="1">
          <mxGeometry x="440" y="68.75" width="130" height="51.25" as="geometry" />
        </mxCell>
        <mxCell id="Mb2tMocg_w37pkCAtzsw-2" value="Тех поддержка" style="html=1;dashed=0;whiteSpace=wrap;" vertex="1" parent="Mb2tMocg_w37pkCAtzsw-1">
          <mxGeometry width="129.99999999999997" height="51.24999999999999" as="geometry" />
        </mxCell>
        <mxCell id="Mb2tMocg_w37pkCAtzsw-3" value="Е2" style="text;html=1;align=center;verticalAlign=middle;whiteSpace=wrap;rounded=0;" vertex="1" parent="Mb2tMocg_w37pkCAtzsw-1">
          <mxGeometry x="1.2999999999999998" y="3.0749999999999997" width="25.999999999999996" height="10.25" as="geometry" />
        </mxCell>
        <mxCell id="Mb2tMocg_w37pkCAtzsw-4" style="edgeStyle=orthogonalEdgeStyle;rounded=0;orthogonalLoop=1;jettySize=auto;html=1;exitX=1;exitY=0.25;exitDx=0;exitDy=0;entryX=0;entryY=0.25;entryDx=0;entryDy=0;" edge="1" parent="1" source="mBDCCcmtrXDYQbuCWVLs-7" target="Mb2tMocg_w37pkCAtzsw-2">
          <mxGeometry relative="1" as="geometry" />
        </mxCell>
        <mxCell id="Mb2tMocg_w37pkCAtzsw-7" value="&lt;span style=&quot;font-size: 9px;&quot;&gt;обращение&lt;/span&gt;" style="edgeLabel;html=1;align=center;verticalAlign=middle;resizable=0;points=[];" vertex="1" connectable="0" parent="Mb2tMocg_w37pkCAtzsw-4">
          <mxGeometry x="-0.2331" relative="1" as="geometry">
            <mxPoint as="offset" />
          </mxGeometry>
        </mxCell>
        <mxCell id="Mb2tMocg_w37pkCAtzsw-8" style="edgeStyle=orthogonalEdgeStyle;rounded=0;orthogonalLoop=1;jettySize=auto;html=1;exitX=0;exitY=0.75;exitDx=0;exitDy=0;entryX=1;entryY=0.75;entryDx=0;entryDy=0;" edge="1" parent="1" source="Mb2tMocg_w37pkCAtzsw-2" target="mBDCCcmtrXDYQbuCWVLs-7">
          <mxGeometry relative="1" as="geometry" />
        </mxCell>
        <mxCell id="Mb2tMocg_w37pkCAtzsw-10" value="&lt;span style=&quot;font-size: 9px; text-wrap-mode: wrap; background-color: rgb(251, 251, 251);&quot;&gt;Данные о обращения&lt;/span&gt;" style="edgeLabel;html=1;align=center;verticalAlign=middle;resizable=0;points=[];" vertex="1" connectable="0" parent="Mb2tMocg_w37pkCAtzsw-8">
          <mxGeometry x="-0.0123" y="1" relative="1" as="geometry">
            <mxPoint x="1" y="1" as="offset" />
          </mxGeometry>
        </mxCell>
        <mxCell id="Mb2tMocg_w37pkCAtzsw-11" style="edgeStyle=orthogonalEdgeStyle;rounded=0;orthogonalLoop=1;jettySize=auto;html=1;exitX=1;exitY=1;exitDx=0;exitDy=0;entryX=0.25;entryY=1;entryDx=0;entryDy=0;" edge="1" parent="1" source="VkxX3-nq8TyR26TCGK2I-5" target="Mb2tMocg_w37pkCAtzsw-2">
          <mxGeometry relative="1" as="geometry">
            <Array as="points">
              <mxPoint x="380" y="242" />
              <mxPoint x="475" y="242" />
            </Array>
          </mxGeometry>
        </mxCell>
        <mxCell id="Mb2tMocg_w37pkCAtzsw-13" value="&lt;span style=&quot;font-size: 9px; text-wrap-mode: wrap; background-color: rgb(251, 251, 251);&quot;&gt;Данные о обращения&lt;/span&gt;" style="edgeLabel;html=1;align=center;verticalAlign=middle;resizable=0;points=[];" vertex="1" connectable="0" parent="Mb2tMocg_w37pkCAtzsw-11">
          <mxGeometry x="0.3653" y="-1" relative="1" as="geometry">
            <mxPoint as="offset" />
          </mxGeometry>
        </mxCell>
        <mxCell id="Mb2tMocg_w37pkCAtzsw-14" style="edgeStyle=orthogonalEdgeStyle;rounded=0;orthogonalLoop=1;jettySize=auto;html=1;exitX=0.75;exitY=1;exitDx=0;exitDy=0;entryX=1;entryY=0.75;entryDx=0;entryDy=0;" edge="1" parent="1" source="Mb2tMocg_w37pkCAtzsw-2" target="VkxX3-nq8TyR26TCGK2I-4">
          <mxGeometry relative="1" as="geometry">
            <Array as="points">
              <mxPoint x="545" y="268" />
            </Array>
          </mxGeometry>
        </mxCell>
        <mxCell id="Mb2tMocg_w37pkCAtzsw-15" value="Данные о &lt;br&gt;исполнителе" style="edgeLabel;html=1;align=center;verticalAlign=middle;resizable=0;points=[];fontSize=9;" vertex="1" connectable="0" parent="Mb2tMocg_w37pkCAtzsw-14">
          <mxGeometry x="0.0562" relative="1" as="geometry">
            <mxPoint x="-69" as="offset" />
          </mxGeometry>
        </mxCell>
        <mxCell id="gwSUcKWiiyee8wRwAGgm-1" style="edgeStyle=orthogonalEdgeStyle;rounded=0;orthogonalLoop=1;jettySize=auto;html=1;entryX=1;entryY=0.5;entryDx=0;entryDy=0;" edge="1" parent="1" target="VkxX3-nq8TyR26TCGK2I-4">
          <mxGeometry relative="1" as="geometry">
            <mxPoint x="520" y="119" as="sourcePoint" />
            <Array as="points">
              <mxPoint x="520" y="119" />
              <mxPoint x="520" y="255" />
            </Array>
          </mxGeometry>
        </mxCell>
        <mxCell id="gwSUcKWiiyee8wRwAGgm-2" value="ТЗ" style="edgeLabel;html=1;align=center;verticalAlign=middle;resizable=0;points=[];fontSize=9;" vertex="1" connectable="0" parent="gwSUcKWiiyee8wRwAGgm-1">
          <mxGeometry x="0.3549" y="1" relative="1" as="geometry">
            <mxPoint x="33" y="-1" as="offset" />
          </mxGeometry>
        </mxCell>
        <mxCell id="gwSUcKWiiyee8wRwAGgm-5" style="edgeStyle=orthogonalEdgeStyle;rounded=0;orthogonalLoop=1;jettySize=auto;html=1;exitX=0.25;exitY=1;exitDx=0;exitDy=0;entryX=0.25;entryY=0;entryDx=0;entryDy=0;" edge="1" parent="1" source="VkxX3-nq8TyR26TCGK2I-4" target="VkxX3-nq8TyR26TCGK2I-7">
          <mxGeometry relative="1" as="geometry" />
        </mxCell>
        <mxCell id="gwSUcKWiiyee8wRwAGgm-8" value="Данные о&amp;nbsp;&lt;br&gt;&lt;span&gt;исполнителе&lt;/span&gt;" style="edgeLabel;html=1;align=center;verticalAlign=middle;resizable=0;points=[];fontSize=9;" vertex="1" connectable="0" parent="gwSUcKWiiyee8wRwAGgm-5">
          <mxGeometry x="-0.1236" y="1" relative="1" as="geometry">
            <mxPoint as="offset" />
          </mxGeometry>
        </mxCell>
        <mxCell id="gwSUcKWiiyee8wRwAGgm-10" value="Данные&amp;nbsp;&lt;div&gt;О ПМ&lt;/div&gt;" style="edgeStyle=orthogonalEdgeStyle;rounded=0;orthogonalLoop=1;jettySize=auto;html=1;exitX=0;exitY=0.5;exitDx=0;exitDy=0;entryX=1;entryY=0.5;entryDx=0;entryDy=0;fontSize=9;" edge="1" parent="1" source="b0Xx3AtlvpZaK0S-1hgN-2" target="VkxX3-nq8TyR26TCGK2I-7">
          <mxGeometry x="0.0909" y="5" relative="1" as="geometry">
            <mxPoint as="offset" />
          </mxGeometry>
        </mxCell>
        <mxCell id="gwSUcKWiiyee8wRwAGgm-11" style="edgeStyle=orthogonalEdgeStyle;rounded=0;orthogonalLoop=1;jettySize=auto;html=1;entryX=0.004;entryY=0.318;entryDx=0;entryDy=0;entryPerimeter=0;" edge="1" parent="1" source="VkxX3-nq8TyR26TCGK2I-8" target="b0Xx3AtlvpZaK0S-1hgN-2">
          <mxGeometry relative="1" as="geometry" />
        </mxCell>
        <mxCell id="gwSUcKWiiyee8wRwAGgm-12" value="ТЗ" style="edgeLabel;html=1;align=center;verticalAlign=middle;resizable=0;points=[];fontSize=9;" vertex="1" connectable="0" parent="gwSUcKWiiyee8wRwAGgm-11">
          <mxGeometry x="0.4363" y="-1" relative="1" as="geometry">
            <mxPoint x="-39" y="-10" as="offset" />
          </mxGeometry>
        </mxCell>
      </root>
    </mxGraphModel>
  </diagram>
  <diagram id="gt6oq9KXS0bx-PgQR7Bj" name="to-be">
    <mxGraphModel dx="662" dy="389" grid="1" gridSize="10" guides="1" tooltips="1" connect="1" arrows="1" fold="1" page="1" pageScale="1" pageWidth="827" pageHeight="1169" math="0" shadow="0">
      <root>
        <mxCell id="0" />
        <mxCell id="1" parent="0" />
        <mxCell id="6FPBsvpZa5fGtaYR3F3s-1" value="" style="group" vertex="1" connectable="0" parent="1">
          <mxGeometry x="280" y="130" width="140" height="70" as="geometry" />
        </mxCell>
        <mxCell id="6FPBsvpZa5fGtaYR3F3s-2" value="&lt;span style=&quot;background-color: rgb(255, 255, 255);&quot;&gt;Обработка&lt;/span&gt;&lt;br style=&quot;background-color: rgb(255, 255, 255);&quot;&gt;&lt;span style=&quot;background-color: rgb(255, 255, 255);&quot;&gt;обращения&amp;nbsp;&lt;/span&gt;&lt;br style=&quot;background-color: rgb(255, 255, 255);&quot;&gt;&lt;span style=&quot;background-color: rgb(255, 255, 255);&quot;&gt;клиента&lt;/span&gt;" style="rounded=1;whiteSpace=wrap;html=1;" vertex="1" parent="6FPBsvpZa5fGtaYR3F3s-1">
          <mxGeometry width="140" height="70" as="geometry" />
        </mxCell>
        <mxCell id="6FPBsvpZa5fGtaYR3F3s-3" value="1" style="text;html=1;align=center;verticalAlign=middle;whiteSpace=wrap;rounded=0;" vertex="1" parent="6FPBsvpZa5fGtaYR3F3s-1">
          <mxGeometry x="115.5" y="4.666666666666666" width="23.333333333333332" height="11.666666666666666" as="geometry" />
        </mxCell>
        <mxCell id="6FPBsvpZa5fGtaYR3F3s-4" value="" style="group" vertex="1" connectable="0" parent="1">
          <mxGeometry x="490" y="130" width="100" height="70" as="geometry" />
        </mxCell>
        <mxCell id="6FPBsvpZa5fGtaYR3F3s-5" value="Разработчик" style="html=1;dashed=0;whiteSpace=wrap;" vertex="1" parent="6FPBsvpZa5fGtaYR3F3s-4">
          <mxGeometry width="100" height="70" as="geometry" />
        </mxCell>
        <mxCell id="6FPBsvpZa5fGtaYR3F3s-6" value="Е3" style="text;html=1;align=center;verticalAlign=middle;whiteSpace=wrap;rounded=0;" vertex="1" parent="6FPBsvpZa5fGtaYR3F3s-4">
          <mxGeometry x="1" y="3.5" width="20" height="11.666666666666668" as="geometry" />
        </mxCell>
        <mxCell id="6FPBsvpZa5fGtaYR3F3s-7" style="edgeStyle=orthogonalEdgeStyle;rounded=0;orthogonalLoop=1;jettySize=auto;html=1;entryX=0;entryY=0.5;entryDx=0;entryDy=0;fontSize=9;" edge="1" parent="1" source="6FPBsvpZa5fGtaYR3F3s-2" target="6FPBsvpZa5fGtaYR3F3s-5">
          <mxGeometry relative="1" as="geometry" />
        </mxCell>
        <mxCell id="6FPBsvpZa5fGtaYR3F3s-8" value="ТЗ" style="edgeLabel;html=1;align=center;verticalAlign=middle;resizable=0;points=[];fontSize=9;" vertex="1" connectable="0" parent="6FPBsvpZa5fGtaYR3F3s-7">
          <mxGeometry x="-0.3143" y="3" relative="1" as="geometry">
            <mxPoint x="10" y="1" as="offset" />
          </mxGeometry>
        </mxCell>
        <mxCell id="6FPBsvpZa5fGtaYR3F3s-9" style="edgeStyle=orthogonalEdgeStyle;rounded=0;orthogonalLoop=1;jettySize=auto;html=1;exitX=0;exitY=0.75;exitDx=0;exitDy=0;entryX=1;entryY=0.75;entryDx=0;entryDy=0;fontSize=9;" edge="1" parent="1" source="6FPBsvpZa5fGtaYR3F3s-5" target="6FPBsvpZa5fGtaYR3F3s-2">
          <mxGeometry relative="1" as="geometry" />
        </mxCell>
        <mxCell id="6FPBsvpZa5fGtaYR3F3s-10" value="ПМ" style="edgeLabel;html=1;align=center;verticalAlign=middle;resizable=0;points=[];fontSize=9;" vertex="1" connectable="0" parent="6FPBsvpZa5fGtaYR3F3s-9">
          <mxGeometry x="-0.1714" y="3" relative="1" as="geometry">
            <mxPoint x="-3" y="-2" as="offset" />
          </mxGeometry>
        </mxCell>
        <mxCell id="6FPBsvpZa5fGtaYR3F3s-11" value="" style="group" vertex="1" connectable="0" parent="1">
          <mxGeometry x="80" y="130" width="100" height="80" as="geometry" />
        </mxCell>
        <mxCell id="6FPBsvpZa5fGtaYR3F3s-12" value="Клиент" style="html=1;dashed=0;whiteSpace=wrap;" vertex="1" parent="6FPBsvpZa5fGtaYR3F3s-11">
          <mxGeometry width="100" height="70" as="geometry" />
        </mxCell>
        <mxCell id="6FPBsvpZa5fGtaYR3F3s-13" value="Е1" style="text;html=1;align=center;verticalAlign=middle;whiteSpace=wrap;rounded=0;" vertex="1" parent="6FPBsvpZa5fGtaYR3F3s-11">
          <mxGeometry x="1" y="4.800000000000001" width="20" height="16" as="geometry" />
        </mxCell>
        <mxCell id="6FPBsvpZa5fGtaYR3F3s-14" style="edgeStyle=orthogonalEdgeStyle;rounded=0;orthogonalLoop=1;jettySize=auto;html=1;exitX=0.5;exitY=1;exitDx=0;exitDy=0;" edge="1" parent="6FPBsvpZa5fGtaYR3F3s-11" source="6FPBsvpZa5fGtaYR3F3s-12" target="6FPBsvpZa5fGtaYR3F3s-12">
          <mxGeometry relative="1" as="geometry" />
        </mxCell>
        <mxCell id="6FPBsvpZa5fGtaYR3F3s-15" style="edgeStyle=orthogonalEdgeStyle;rounded=0;orthogonalLoop=1;jettySize=auto;html=1;exitX=1;exitY=0.25;exitDx=0;exitDy=0;entryX=0;entryY=0.25;entryDx=0;entryDy=0;" edge="1" parent="1" source="6FPBsvpZa5fGtaYR3F3s-12" target="6FPBsvpZa5fGtaYR3F3s-2">
          <mxGeometry relative="1" as="geometry" />
        </mxCell>
        <mxCell id="6FPBsvpZa5fGtaYR3F3s-16" value="обращение" style="edgeLabel;html=1;align=center;verticalAlign=middle;resizable=0;points=[];fontSize=9;" vertex="1" connectable="0" parent="6FPBsvpZa5fGtaYR3F3s-15">
          <mxGeometry x="-0.1255" y="3" relative="1" as="geometry">
            <mxPoint as="offset" />
          </mxGeometry>
        </mxCell>
        <mxCell id="6FPBsvpZa5fGtaYR3F3s-17" style="edgeStyle=orthogonalEdgeStyle;rounded=0;orthogonalLoop=1;jettySize=auto;html=1;exitX=1;exitY=0.5;exitDx=0;exitDy=0;entryX=0;entryY=0.5;entryDx=0;entryDy=0;" edge="1" parent="1">
          <mxGeometry relative="1" as="geometry">
            <mxPoint x="180" y="163" as="sourcePoint" />
            <mxPoint x="279.9999999999999" y="163" as="targetPoint" />
          </mxGeometry>
        </mxCell>
        <mxCell id="6FPBsvpZa5fGtaYR3F3s-18" value="данные о клиенте" style="edgeLabel;html=1;align=center;verticalAlign=middle;resizable=0;points=[];fontSize=9;" vertex="1" connectable="0" parent="6FPBsvpZa5fGtaYR3F3s-17">
          <mxGeometry x="-0.3738" y="-2" relative="1" as="geometry">
            <mxPoint x="17" as="offset" />
          </mxGeometry>
        </mxCell>
        <mxCell id="6FPBsvpZa5fGtaYR3F3s-19" style="edgeStyle=orthogonalEdgeStyle;rounded=0;orthogonalLoop=1;jettySize=auto;html=1;exitX=0;exitY=0.75;exitDx=0;exitDy=0;entryX=1;entryY=0.75;entryDx=0;entryDy=0;" edge="1" parent="1">
          <mxGeometry relative="1" as="geometry">
            <mxPoint x="279.9999999999999" y="184.5" as="sourcePoint" />
            <mxPoint x="180" y="184.5" as="targetPoint" />
          </mxGeometry>
        </mxCell>
        <mxCell id="6FPBsvpZa5fGtaYR3F3s-20" value="Уведомление" style="edgeLabel;html=1;align=center;verticalAlign=middle;resizable=0;points=[];fontSize=9;" vertex="1" connectable="0" parent="6FPBsvpZa5fGtaYR3F3s-19">
          <mxGeometry x="0.0286" y="-2" relative="1" as="geometry">
            <mxPoint as="offset" />
          </mxGeometry>
        </mxCell>
        <mxCell id="6FPBsvpZa5fGtaYR3F3s-21" style="edgeStyle=orthogonalEdgeStyle;rounded=0;orthogonalLoop=1;jettySize=auto;html=1;exitX=0.091;exitY=0.981;exitDx=0;exitDy=0;entryX=1;entryY=1;entryDx=0;entryDy=0;exitPerimeter=0;" edge="1" parent="1" source="6FPBsvpZa5fGtaYR3F3s-2" target="6FPBsvpZa5fGtaYR3F3s-12">
          <mxGeometry relative="1" as="geometry">
            <Array as="points">
              <mxPoint x="293" y="200" />
            </Array>
          </mxGeometry>
        </mxCell>
        <mxCell id="6FPBsvpZa5fGtaYR3F3s-22" value="ПМ" style="edgeLabel;html=1;align=center;verticalAlign=middle;resizable=0;points=[];fontSize=9;" vertex="1" connectable="0" parent="6FPBsvpZa5fGtaYR3F3s-21">
          <mxGeometry x="0.1081" y="2" relative="1" as="geometry">
            <mxPoint y="-2" as="offset" />
          </mxGeometry>
        </mxCell>
        <mxCell id="6FPBsvpZa5fGtaYR3F3s-23" value="" style="group" vertex="1" connectable="0" parent="1">
          <mxGeometry x="280" y="30" width="140" height="50" as="geometry" />
        </mxCell>
        <mxCell id="6FPBsvpZa5fGtaYR3F3s-24" value="Тех поддержка" style="html=1;dashed=0;whiteSpace=wrap;" vertex="1" parent="6FPBsvpZa5fGtaYR3F3s-23">
          <mxGeometry width="139.99999999999997" height="50" as="geometry" />
        </mxCell>
        <mxCell id="6FPBsvpZa5fGtaYR3F3s-25" value="Е2" style="text;html=1;align=center;verticalAlign=middle;whiteSpace=wrap;rounded=0;" vertex="1" parent="6FPBsvpZa5fGtaYR3F3s-23">
          <mxGeometry x="1.3999999999999997" y="3" width="27.999999999999996" height="10" as="geometry" />
        </mxCell>
        <mxCell id="6FPBsvpZa5fGtaYR3F3s-26" style="edgeStyle=orthogonalEdgeStyle;rounded=0;orthogonalLoop=1;jettySize=auto;html=1;exitX=0.25;exitY=1;exitDx=0;exitDy=0;entryX=0.25;entryY=0;entryDx=0;entryDy=0;" edge="1" parent="1" source="6FPBsvpZa5fGtaYR3F3s-24" target="6FPBsvpZa5fGtaYR3F3s-2">
          <mxGeometry relative="1" as="geometry" />
        </mxCell>
        <mxCell id="6FPBsvpZa5fGtaYR3F3s-27" value="ТЗ" style="edgeLabel;html=1;align=center;verticalAlign=middle;resizable=0;points=[];" vertex="1" connectable="0" parent="6FPBsvpZa5fGtaYR3F3s-26">
          <mxGeometry x="-0.3357" y="1" relative="1" as="geometry">
            <mxPoint as="offset" />
          </mxGeometry>
        </mxCell>
        <mxCell id="6FPBsvpZa5fGtaYR3F3s-28" style="edgeStyle=orthogonalEdgeStyle;rounded=0;orthogonalLoop=1;jettySize=auto;html=1;exitX=0.75;exitY=0;exitDx=0;exitDy=0;entryX=0.75;entryY=1;entryDx=0;entryDy=0;" edge="1" parent="1" source="6FPBsvpZa5fGtaYR3F3s-2" target="6FPBsvpZa5fGtaYR3F3s-24">
          <mxGeometry relative="1" as="geometry" />
        </mxCell>
        <mxCell id="6FPBsvpZa5fGtaYR3F3s-29" value="&lt;span style=&quot;text-wrap-mode: wrap; background-color: rgb(251, 251, 251);&quot;&gt;Данные о обращения&lt;/span&gt;" style="edgeLabel;html=1;align=center;verticalAlign=middle;resizable=0;points=[];fontSize=9;" vertex="1" connectable="0" parent="6FPBsvpZa5fGtaYR3F3s-28">
          <mxGeometry x="-0.0643" relative="1" as="geometry">
            <mxPoint x="1" as="offset" />
          </mxGeometry>
        </mxCell>
      </root>
    </mxGraphModel>
  </diagram>
  <diagram id="EJq4-DvwAhQ02lALiSyE" name="дек. to-be">
    <mxGraphModel dx="934" dy="549" grid="1" gridSize="10" guides="1" tooltips="1" connect="1" arrows="1" fold="1" page="1" pageScale="1" pageWidth="827" pageHeight="1169" math="0" shadow="0">
      <root>
        <mxCell id="0" />
        <mxCell id="1" parent="0" />
        <mxCell id="9lL80ondNhoFt3ZJV4Sg-1" value="" style="endArrow=classic;html=1;rounded=0;exitX=1;exitY=0.75;exitDx=0;exitDy=0;entryX=0;entryY=0.75;entryDx=0;entryDy=0;edgeStyle=orthogonalEdgeStyle;" edge="1" parent="1" target="9lL80ondNhoFt3ZJV4Sg-9" source="9lL80ondNhoFt3ZJV4Sg-6">
          <mxGeometry width="50" height="50" relative="1" as="geometry">
            <mxPoint x="150" y="105" as="sourcePoint" />
            <mxPoint x="240" y="102.5" as="targetPoint" />
            <Array as="points">
              <mxPoint x="110" y="104" />
            </Array>
          </mxGeometry>
        </mxCell>
        <mxCell id="9lL80ondNhoFt3ZJV4Sg-2" value="Данные о клиенте" style="edgeLabel;html=1;align=center;verticalAlign=middle;resizable=0;points=[];fontSize=9;" vertex="1" connectable="0" parent="9lL80ondNhoFt3ZJV4Sg-1">
          <mxGeometry x="-0.3" y="-2" relative="1" as="geometry">
            <mxPoint x="64" y="-3" as="offset" />
          </mxGeometry>
        </mxCell>
        <mxCell id="9lL80ondNhoFt3ZJV4Sg-5" value="" style="group" vertex="1" connectable="0" parent="1">
          <mxGeometry x="30" y="59.38" width="100" height="60" as="geometry" />
        </mxCell>
        <mxCell id="9lL80ondNhoFt3ZJV4Sg-6" value="Клиент" style="html=1;dashed=0;whiteSpace=wrap;" vertex="1" parent="9lL80ondNhoFt3ZJV4Sg-5">
          <mxGeometry width="100" height="60" as="geometry" />
        </mxCell>
        <mxCell id="9lL80ondNhoFt3ZJV4Sg-7" value="Е1" style="text;html=1;align=center;verticalAlign=middle;whiteSpace=wrap;rounded=0;" vertex="1" parent="9lL80ondNhoFt3ZJV4Sg-5">
          <mxGeometry x="1" y="3.6000000000000014" width="20" height="12" as="geometry" />
        </mxCell>
        <mxCell id="9lL80ondNhoFt3ZJV4Sg-8" value="" style="group" vertex="1" connectable="0" parent="1">
          <mxGeometry x="250" y="60" width="110" height="58.75" as="geometry" />
        </mxCell>
        <mxCell id="9lL80ondNhoFt3ZJV4Sg-9" value="Авторизация" style="rounded=1;whiteSpace=wrap;html=1;" vertex="1" parent="9lL80ondNhoFt3ZJV4Sg-8">
          <mxGeometry width="110" height="58.75" as="geometry" />
        </mxCell>
        <mxCell id="9lL80ondNhoFt3ZJV4Sg-10" value="1" style="text;html=1;align=center;verticalAlign=middle;whiteSpace=wrap;rounded=0;" vertex="1" parent="9lL80ondNhoFt3ZJV4Sg-8">
          <mxGeometry x="90.75" y="3.916666666666667" width="18.333333333333332" height="9.791666666666666" as="geometry" />
        </mxCell>
        <mxCell id="9lL80ondNhoFt3ZJV4Sg-17" value="" style="group" vertex="1" connectable="0" parent="1">
          <mxGeometry x="250" y="170" width="110" height="52.5" as="geometry" />
        </mxCell>
        <mxCell id="9lL80ondNhoFt3ZJV4Sg-18" value="Обработка&amp;nbsp;&lt;br&gt;обращений" style="rounded=1;whiteSpace=wrap;html=1;" vertex="1" parent="9lL80ondNhoFt3ZJV4Sg-17">
          <mxGeometry width="110" height="52.5" as="geometry" />
        </mxCell>
        <mxCell id="9lL80ondNhoFt3ZJV4Sg-19" value="2" style="text;html=1;align=center;verticalAlign=middle;whiteSpace=wrap;rounded=0;" vertex="1" parent="9lL80ondNhoFt3ZJV4Sg-17">
          <mxGeometry x="90.75" y="3.5" width="18.333333333333332" height="8.75" as="geometry" />
        </mxCell>
        <mxCell id="Aj2E06TGm8YW9jOFYZer-1" value="" style="group" vertex="1" connectable="0" parent="1">
          <mxGeometry x="440" y="77.5" width="100" height="30" as="geometry" />
        </mxCell>
        <mxCell id="Aj2E06TGm8YW9jOFYZer-2" value="D1" style="html=1;dashed=0;whiteSpace=wrap;shape=mxgraph.dfd.dataStoreID;align=left;spacingLeft=3;points=[[0,0],[0.5,0],[1,0],[0,0.5],[1,0.5],[0,1],[0.5,1],[1,1]];" vertex="1" parent="Aj2E06TGm8YW9jOFYZer-1">
          <mxGeometry width="100" height="30" as="geometry" />
        </mxCell>
        <mxCell id="Aj2E06TGm8YW9jOFYZer-3" value="Клиенты" style="text;html=1;align=center;verticalAlign=middle;whiteSpace=wrap;rounded=0;" vertex="1" parent="Aj2E06TGm8YW9jOFYZer-1">
          <mxGeometry x="40" y="5" width="50" height="20" as="geometry" />
        </mxCell>
        <mxCell id="Aj2E06TGm8YW9jOFYZer-4" style="edgeStyle=orthogonalEdgeStyle;rounded=0;orthogonalLoop=1;jettySize=auto;html=1;entryX=1;entryY=0.5;entryDx=0;entryDy=0;" edge="1" parent="1" source="Aj2E06TGm8YW9jOFYZer-2" target="9lL80ondNhoFt3ZJV4Sg-9">
          <mxGeometry relative="1" as="geometry" />
        </mxCell>
        <mxCell id="Aj2E06TGm8YW9jOFYZer-10" value="&lt;span style=&quot;font-size: 9px;&quot;&gt;Данные о&lt;/span&gt;&lt;br style=&quot;font-size: 9px;&quot;&gt;&lt;span style=&quot;font-size: 9px;&quot;&gt;клиенте&lt;/span&gt;" style="edgeLabel;html=1;align=center;verticalAlign=middle;resizable=0;points=[];" vertex="1" connectable="0" parent="Aj2E06TGm8YW9jOFYZer-4">
          <mxGeometry x="0.0702" y="2" relative="1" as="geometry">
            <mxPoint as="offset" />
          </mxGeometry>
        </mxCell>
        <mxCell id="Aj2E06TGm8YW9jOFYZer-6" style="edgeStyle=orthogonalEdgeStyle;rounded=0;orthogonalLoop=1;jettySize=auto;html=1;exitX=0.25;exitY=1;exitDx=0;exitDy=0;entryX=0.25;entryY=0;entryDx=0;entryDy=0;" edge="1" parent="1" source="9lL80ondNhoFt3ZJV4Sg-9" target="9lL80ondNhoFt3ZJV4Sg-18">
          <mxGeometry relative="1" as="geometry" />
        </mxCell>
        <mxCell id="Aj2E06TGm8YW9jOFYZer-7" value="&lt;span style=&quot;font-size: 9px;&quot;&gt;Требование&lt;/span&gt;&lt;br style=&quot;font-size: 9px;&quot;&gt;&lt;span style=&quot;font-size: 9px;&quot;&gt;клиента&lt;/span&gt;" style="edgeLabel;html=1;align=center;verticalAlign=middle;resizable=0;points=[];" vertex="1" connectable="0" parent="Aj2E06TGm8YW9jOFYZer-6">
          <mxGeometry x="-0.195" y="-2" relative="1" as="geometry">
            <mxPoint as="offset" />
          </mxGeometry>
        </mxCell>
        <mxCell id="Aj2E06TGm8YW9jOFYZer-8" style="edgeStyle=orthogonalEdgeStyle;rounded=0;orthogonalLoop=1;jettySize=auto;html=1;exitX=0.75;exitY=1;exitDx=0;exitDy=0;entryX=0.75;entryY=0;entryDx=0;entryDy=0;" edge="1" parent="1" source="9lL80ondNhoFt3ZJV4Sg-9" target="9lL80ondNhoFt3ZJV4Sg-18">
          <mxGeometry relative="1" as="geometry" />
        </mxCell>
        <mxCell id="Aj2E06TGm8YW9jOFYZer-9" value="&lt;span style=&quot;font-size: 9px;&quot;&gt;Данные о&lt;/span&gt;&lt;br style=&quot;font-size: 9px;&quot;&gt;&lt;span style=&quot;font-size: 9px;&quot;&gt;клиенте&lt;/span&gt;" style="edgeLabel;html=1;align=center;verticalAlign=middle;resizable=0;points=[];" vertex="1" connectable="0" parent="Aj2E06TGm8YW9jOFYZer-8">
          <mxGeometry x="-0.0873" relative="1" as="geometry">
            <mxPoint as="offset" />
          </mxGeometry>
        </mxCell>
        <mxCell id="Tbn6DuayUwUMb0OqrGZf-1" value="" style="group" vertex="1" connectable="0" parent="1">
          <mxGeometry x="440" y="270" width="140" height="50" as="geometry" />
        </mxCell>
        <mxCell id="Tbn6DuayUwUMb0OqrGZf-2" value="Тех поддержка" style="html=1;dashed=0;whiteSpace=wrap;" vertex="1" parent="Tbn6DuayUwUMb0OqrGZf-1">
          <mxGeometry width="139.99999999999997" height="50" as="geometry" />
        </mxCell>
        <mxCell id="Tbn6DuayUwUMb0OqrGZf-3" value="Е2" style="text;html=1;align=center;verticalAlign=middle;whiteSpace=wrap;rounded=0;" vertex="1" parent="Tbn6DuayUwUMb0OqrGZf-1">
          <mxGeometry x="1.3999999999999997" y="3" width="27.999999999999996" height="10" as="geometry" />
        </mxCell>
        <mxCell id="Tbn6DuayUwUMb0OqrGZf-4" style="edgeStyle=orthogonalEdgeStyle;rounded=0;orthogonalLoop=1;jettySize=auto;html=1;exitX=1;exitY=1;exitDx=0;exitDy=0;entryX=0;entryY=0.25;entryDx=0;entryDy=0;" edge="1" parent="1" source="tuzaKrYh2xmvLP2Vp6QK-3" target="Tbn6DuayUwUMb0OqrGZf-2">
          <mxGeometry relative="1" as="geometry">
            <Array as="points">
              <mxPoint x="390" y="283" />
              <mxPoint x="390" y="283" />
            </Array>
          </mxGeometry>
        </mxCell>
        <mxCell id="Tbn6DuayUwUMb0OqrGZf-7" value="&lt;span&gt;данные о&amp;nbsp;&lt;/span&gt;&lt;br&gt;&lt;span&gt;обращения&lt;/span&gt;" style="edgeLabel;html=1;align=center;verticalAlign=middle;resizable=0;points=[];fontSize=9;" vertex="1" connectable="0" parent="Tbn6DuayUwUMb0OqrGZf-4">
          <mxGeometry x="-0.3123" relative="1" as="geometry">
            <mxPoint x="7" as="offset" />
          </mxGeometry>
        </mxCell>
        <mxCell id="1T64zDYjiVJ_r8xU2gWH-1" style="edgeStyle=orthogonalEdgeStyle;rounded=0;orthogonalLoop=1;jettySize=auto;html=1;exitX=0;exitY=0.75;exitDx=0;exitDy=0;entryX=1;entryY=0.75;entryDx=0;entryDy=0;" edge="1" parent="1" source="Tbn6DuayUwUMb0OqrGZf-2" target="tuzaKrYh2xmvLP2Vp6QK-2">
          <mxGeometry relative="1" as="geometry" />
        </mxCell>
        <mxCell id="1T64zDYjiVJ_r8xU2gWH-2" value="ТЗ" style="edgeLabel;html=1;align=center;verticalAlign=middle;resizable=0;points=[];" vertex="1" connectable="0" parent="1T64zDYjiVJ_r8xU2gWH-1">
          <mxGeometry x="0.0672" y="1" relative="1" as="geometry">
            <mxPoint as="offset" />
          </mxGeometry>
        </mxCell>
        <mxCell id="EeYgpc00_BMzV67Xlco2-4" value="" style="group" vertex="1" connectable="0" parent="1">
          <mxGeometry x="90" y="140" width="110" height="30" as="geometry" />
        </mxCell>
        <mxCell id="EeYgpc00_BMzV67Xlco2-1" value="D2" style="html=1;dashed=0;whiteSpace=wrap;shape=mxgraph.dfd.dataStoreID;align=left;spacingLeft=3;points=[[0,0],[0.5,0],[1,0],[0,0.5],[1,0.5],[0,1],[0.5,1],[1,1]];" vertex="1" parent="EeYgpc00_BMzV67Xlco2-4">
          <mxGeometry width="110.00000000000001" height="30" as="geometry" />
        </mxCell>
        <mxCell id="EeYgpc00_BMzV67Xlco2-2" value="Исполнитель" style="text;html=1;align=center;verticalAlign=middle;whiteSpace=wrap;rounded=0;" vertex="1" parent="EeYgpc00_BMzV67Xlco2-4">
          <mxGeometry x="44" y="5" width="55.00000000000001" height="20" as="geometry" />
        </mxCell>
        <mxCell id="EeYgpc00_BMzV67Xlco2-5" style="edgeStyle=orthogonalEdgeStyle;rounded=0;orthogonalLoop=1;jettySize=auto;html=1;entryX=0;entryY=0.5;entryDx=0;entryDy=0;exitX=1;exitY=0.5;exitDx=0;exitDy=0;" edge="1" parent="1" source="EeYgpc00_BMzV67Xlco2-1" target="9lL80ondNhoFt3ZJV4Sg-18">
          <mxGeometry relative="1" as="geometry">
            <mxPoint x="180" y="196" as="sourcePoint" />
          </mxGeometry>
        </mxCell>
        <mxCell id="x_0bqH93m9PgLFivqcbL-1" value="Данные&lt;br&gt;о исполнителе" style="edgeLabel;html=1;align=center;verticalAlign=middle;resizable=0;points=[];fontSize=9;" vertex="1" connectable="0" parent="EeYgpc00_BMzV67Xlco2-5">
          <mxGeometry x="-0.1545" relative="1" as="geometry">
            <mxPoint x="-22" y="22" as="offset" />
          </mxGeometry>
        </mxCell>
        <mxCell id="Iny2aAlIGNWWKy3ZjApD-1" style="edgeStyle=orthogonalEdgeStyle;rounded=0;orthogonalLoop=1;jettySize=auto;html=1;exitX=0.998;exitY=0.332;exitDx=0;exitDy=0;entryX=0.026;entryY=0.328;entryDx=0;entryDy=0;entryPerimeter=0;exitPerimeter=0;" edge="1" parent="1" source="9lL80ondNhoFt3ZJV4Sg-6" target="9lL80ondNhoFt3ZJV4Sg-9">
          <mxGeometry relative="1" as="geometry" />
        </mxCell>
        <mxCell id="Iny2aAlIGNWWKy3ZjApD-2" value="Обращения" style="edgeLabel;html=1;align=center;verticalAlign=middle;resizable=0;points=[];fontSize=9;" vertex="1" connectable="0" parent="Iny2aAlIGNWWKy3ZjApD-1">
          <mxGeometry x="-0.0525" y="-1" relative="1" as="geometry">
            <mxPoint x="-1" y="-3" as="offset" />
          </mxGeometry>
        </mxCell>
        <mxCell id="iUaj_Hive2Sg9tJn8k8F-1" value="" style="group" vertex="1" connectable="0" parent="1">
          <mxGeometry x="250" y="350" width="110" height="60" as="geometry" />
        </mxCell>
        <mxCell id="iUaj_Hive2Sg9tJn8k8F-2" value="&lt;span style=&quot;background-color: rgb(255, 255, 255);&quot;&gt;Выполнения&lt;/span&gt;&lt;br style=&quot;background-color: rgb(255, 255, 255);&quot;&gt;&lt;span style=&quot;background-color: rgb(255, 255, 255);&quot;&gt;обращения&lt;/span&gt;" style="rounded=1;whiteSpace=wrap;html=1;" vertex="1" parent="iUaj_Hive2Sg9tJn8k8F-1">
          <mxGeometry width="110" height="60" as="geometry" />
        </mxCell>
        <mxCell id="iUaj_Hive2Sg9tJn8k8F-3" value="3" style="text;html=1;align=center;verticalAlign=middle;whiteSpace=wrap;rounded=0;" vertex="1" parent="iUaj_Hive2Sg9tJn8k8F-1">
          <mxGeometry x="90.75" y="3.4285714285714284" width="18.333333333333332" height="8.571428571428571" as="geometry" />
        </mxCell>
        <mxCell id="iUaj_Hive2Sg9tJn8k8F-4" style="edgeStyle=orthogonalEdgeStyle;rounded=0;orthogonalLoop=1;jettySize=auto;html=1;entryX=0.5;entryY=0;entryDx=0;entryDy=0;exitX=0.5;exitY=1;exitDx=0;exitDy=0;" edge="1" parent="1" source="tuzaKrYh2xmvLP2Vp6QK-2" target="iUaj_Hive2Sg9tJn8k8F-2">
          <mxGeometry relative="1" as="geometry">
            <mxPoint x="305" y="290" as="sourcePoint" />
          </mxGeometry>
        </mxCell>
        <mxCell id="iUaj_Hive2Sg9tJn8k8F-5" value="ТЗ" style="edgeLabel;html=1;align=center;verticalAlign=middle;resizable=0;points=[];" vertex="1" connectable="0" parent="iUaj_Hive2Sg9tJn8k8F-4">
          <mxGeometry x="-0.4737" y="3" relative="1" as="geometry">
            <mxPoint x="-3" y="6" as="offset" />
          </mxGeometry>
        </mxCell>
        <mxCell id="iUaj_Hive2Sg9tJn8k8F-6" value="" style="group" vertex="1" connectable="0" parent="1">
          <mxGeometry x="88" y="230" width="110" height="30" as="geometry" />
        </mxCell>
        <mxCell id="iUaj_Hive2Sg9tJn8k8F-7" value="D3" style="html=1;dashed=0;whiteSpace=wrap;shape=mxgraph.dfd.dataStoreID;align=left;spacingLeft=3;points=[[0,0],[0.5,0],[1,0],[0,0.5],[1,0.5],[0,1],[0.5,1],[1,1]];" vertex="1" parent="iUaj_Hive2Sg9tJn8k8F-6">
          <mxGeometry width="110.00000000000001" height="30" as="geometry" />
        </mxCell>
        <mxCell id="iUaj_Hive2Sg9tJn8k8F-8" value="Задача" style="text;html=1;align=center;verticalAlign=middle;whiteSpace=wrap;rounded=0;" vertex="1" parent="iUaj_Hive2Sg9tJn8k8F-6">
          <mxGeometry x="44" y="5" width="55.00000000000001" height="20" as="geometry" />
        </mxCell>
        <mxCell id="iUaj_Hive2Sg9tJn8k8F-9" style="edgeStyle=orthogonalEdgeStyle;rounded=0;orthogonalLoop=1;jettySize=auto;html=1;exitX=0.25;exitY=1;exitDx=0;exitDy=0;entryX=1;entryY=0.5;entryDx=0;entryDy=0;" edge="1" parent="1" source="9lL80ondNhoFt3ZJV4Sg-18" target="iUaj_Hive2Sg9tJn8k8F-7">
          <mxGeometry relative="1" as="geometry" />
        </mxCell>
        <mxCell id="iUaj_Hive2Sg9tJn8k8F-10" value="Задача" style="edgeLabel;html=1;align=center;verticalAlign=middle;resizable=0;points=[];" vertex="1" connectable="0" parent="iUaj_Hive2Sg9tJn8k8F-9">
          <mxGeometry x="0.0429" y="-1" relative="1" as="geometry">
            <mxPoint as="offset" />
          </mxGeometry>
        </mxCell>
        <mxCell id="Y7NXzmFyJ7Nh0QKzOTcE-1" value="" style="group" vertex="1" connectable="0" parent="1">
          <mxGeometry x="440" y="340" width="140" height="60" as="geometry" />
        </mxCell>
        <mxCell id="Y7NXzmFyJ7Nh0QKzOTcE-2" value="Исполнитель" style="html=1;dashed=0;whiteSpace=wrap;" vertex="1" parent="Y7NXzmFyJ7Nh0QKzOTcE-1">
          <mxGeometry x="10" width="140" height="60" as="geometry" />
        </mxCell>
        <mxCell id="Y7NXzmFyJ7Nh0QKzOTcE-4" style="edgeStyle=orthogonalEdgeStyle;rounded=0;orthogonalLoop=1;jettySize=auto;html=1;exitX=1;exitY=0.25;exitDx=0;exitDy=0;entryX=0.002;entryY=0.412;entryDx=0;entryDy=0;entryPerimeter=0;" edge="1" parent="1" source="iUaj_Hive2Sg9tJn8k8F-2" target="Y7NXzmFyJ7Nh0QKzOTcE-2">
          <mxGeometry relative="1" as="geometry">
            <mxPoint x="440" y="365" as="targetPoint" />
            <Array as="points" />
          </mxGeometry>
        </mxCell>
        <mxCell id="ZmFv1HRxjJnBCY1SuPEQ-1" value="ТЗ" style="edgeLabel;html=1;align=center;verticalAlign=middle;resizable=0;points=[];fontSize=9;" vertex="1" connectable="0" parent="Y7NXzmFyJ7Nh0QKzOTcE-4">
          <mxGeometry x="0.1914" relative="1" as="geometry">
            <mxPoint x="-18" as="offset" />
          </mxGeometry>
        </mxCell>
        <mxCell id="ZmFv1HRxjJnBCY1SuPEQ-2" style="edgeStyle=orthogonalEdgeStyle;rounded=0;orthogonalLoop=1;jettySize=auto;html=1;exitX=0;exitY=0.75;exitDx=0;exitDy=0;entryX=1;entryY=0.5;entryDx=0;entryDy=0;" edge="1" parent="1" source="Y7NXzmFyJ7Nh0QKzOTcE-2" target="iUaj_Hive2Sg9tJn8k8F-2">
          <mxGeometry relative="1" as="geometry" />
        </mxCell>
        <mxCell id="ZmFv1HRxjJnBCY1SuPEQ-3" value="Данные&amp;nbsp; о ПМ" style="edgeLabel;html=1;align=center;verticalAlign=middle;resizable=0;points=[];fontSize=9;" vertex="1" connectable="0" parent="ZmFv1HRxjJnBCY1SuPEQ-2">
          <mxGeometry x="0.4906" y="1" relative="1" as="geometry">
            <mxPoint x="24" as="offset" />
          </mxGeometry>
        </mxCell>
        <mxCell id="tuzaKrYh2xmvLP2Vp6QK-1" value="" style="group" vertex="1" connectable="0" parent="1">
          <mxGeometry x="250" y="270" width="110" height="52.5" as="geometry" />
        </mxCell>
        <mxCell id="tuzaKrYh2xmvLP2Vp6QK-2" value="&lt;span style=&quot;background-color: rgb(255, 255, 255);&quot;&gt;Распределения&lt;/span&gt;&lt;br style=&quot;background-color: rgb(255, 255, 255);&quot;&gt;&lt;span style=&quot;background-color: rgb(255, 255, 255);&quot;&gt;обращения&lt;/span&gt;" style="rounded=1;whiteSpace=wrap;html=1;" vertex="1" parent="tuzaKrYh2xmvLP2Vp6QK-1">
          <mxGeometry width="110" height="52.5" as="geometry" />
        </mxCell>
        <mxCell id="tuzaKrYh2xmvLP2Vp6QK-3" value="3" style="text;html=1;align=center;verticalAlign=middle;whiteSpace=wrap;rounded=0;" vertex="1" parent="tuzaKrYh2xmvLP2Vp6QK-1">
          <mxGeometry x="90.75" y="3.5" width="18.333333333333332" height="8.75" as="geometry" />
        </mxCell>
        <mxCell id="nWXdQkEoc-M612bPOmX7-1" style="edgeStyle=orthogonalEdgeStyle;rounded=0;orthogonalLoop=1;jettySize=auto;html=1;exitX=0.5;exitY=1;exitDx=0;exitDy=0;entryX=0.5;entryY=0;entryDx=0;entryDy=0;" edge="1" parent="1" source="9lL80ondNhoFt3ZJV4Sg-18" target="tuzaKrYh2xmvLP2Vp6QK-2">
          <mxGeometry relative="1" as="geometry" />
        </mxCell>
        <mxCell id="nWXdQkEoc-M612bPOmX7-2" value="&lt;span style=&quot;font-size: 9px;&quot;&gt;данные о&amp;nbsp;&lt;/span&gt;&lt;br style=&quot;font-size: 9px;&quot;&gt;&lt;span style=&quot;font-size: 9px;&quot;&gt;обращения&lt;/span&gt;" style="edgeLabel;html=1;align=center;verticalAlign=middle;resizable=0;points=[];" vertex="1" connectable="0" parent="nWXdQkEoc-M612bPOmX7-1">
          <mxGeometry x="-0.3263" y="3" relative="1" as="geometry">
            <mxPoint as="offset" />
          </mxGeometry>
        </mxCell>
        <mxCell id="Y7NXzmFyJ7Nh0QKzOTcE-3" value="Е3" style="text;html=1;align=center;verticalAlign=middle;whiteSpace=wrap;rounded=0;" vertex="1" parent="1">
          <mxGeometry x="447.4" y="343" width="27.999999999999996" height="10" as="geometry" />
        </mxCell>
        <mxCell id="obZO4NppIWgDIUV440fT-1" value="" style="group" vertex="1" connectable="0" parent="1">
          <mxGeometry x="255" y="450" width="100" height="50" as="geometry" />
        </mxCell>
        <mxCell id="obZO4NppIWgDIUV440fT-2" value="&lt;span style=&quot;background-color: rgb(255, 255, 255);&quot;&gt;Оповещение&lt;/span&gt;" style="rounded=1;whiteSpace=wrap;html=1;" vertex="1" parent="obZO4NppIWgDIUV440fT-1">
          <mxGeometry width="100" height="50" as="geometry" />
        </mxCell>
        <mxCell id="obZO4NppIWgDIUV440fT-3" value="4" style="text;html=1;align=center;verticalAlign=middle;whiteSpace=wrap;rounded=0;" vertex="1" parent="obZO4NppIWgDIUV440fT-1">
          <mxGeometry x="82.5" y="3.3333333333333335" width="16.666666666666668" height="8.333333333333334" as="geometry" />
        </mxCell>
        <mxCell id="obZO4NppIWgDIUV440fT-7" style="edgeStyle=orthogonalEdgeStyle;rounded=0;orthogonalLoop=1;jettySize=auto;html=1;" edge="1" parent="1" source="iUaj_Hive2Sg9tJn8k8F-2">
          <mxGeometry relative="1" as="geometry">
            <mxPoint x="70" y="120" as="targetPoint" />
            <Array as="points">
              <mxPoint x="70" y="380" />
              <mxPoint x="70" y="120" />
            </Array>
          </mxGeometry>
        </mxCell>
        <mxCell id="obZO4NppIWgDIUV440fT-8" value="ПМ" style="edgeLabel;html=1;align=center;verticalAlign=middle;resizable=0;points=[];" vertex="1" connectable="0" parent="obZO4NppIWgDIUV440fT-7">
          <mxGeometry x="-0.7226" y="-2" relative="1" as="geometry">
            <mxPoint as="offset" />
          </mxGeometry>
        </mxCell>
        <mxCell id="obZO4NppIWgDIUV440fT-9" style="edgeStyle=orthogonalEdgeStyle;rounded=0;orthogonalLoop=1;jettySize=auto;html=1;exitX=0.5;exitY=1;exitDx=0;exitDy=0;entryX=0.5;entryY=0;entryDx=0;entryDy=0;" edge="1" parent="1" source="iUaj_Hive2Sg9tJn8k8F-2" target="obZO4NppIWgDIUV440fT-2">
          <mxGeometry relative="1" as="geometry" />
        </mxCell>
        <mxCell id="obZO4NppIWgDIUV440fT-12" value="Сообщение клиенту" style="edgeLabel;html=1;align=center;verticalAlign=middle;resizable=0;points=[];" vertex="1" connectable="0" parent="obZO4NppIWgDIUV440fT-9">
          <mxGeometry x="-0.2625" relative="1" as="geometry">
            <mxPoint as="offset" />
          </mxGeometry>
        </mxCell>
        <mxCell id="obZO4NppIWgDIUV440fT-10" style="edgeStyle=orthogonalEdgeStyle;rounded=0;orthogonalLoop=1;jettySize=auto;html=1;exitX=0;exitY=0.5;exitDx=0;exitDy=0;entryX=0.165;entryY=0.969;entryDx=0;entryDy=0;entryPerimeter=0;" edge="1" parent="1" source="obZO4NppIWgDIUV440fT-2" target="9lL80ondNhoFt3ZJV4Sg-6">
          <mxGeometry relative="1" as="geometry">
            <mxPoint x="30" y="210" as="targetPoint" />
          </mxGeometry>
        </mxCell>
        <mxCell id="obZO4NppIWgDIUV440fT-11" value="Уведомление" style="edgeLabel;html=1;align=center;verticalAlign=middle;resizable=0;points=[];" vertex="1" connectable="0" parent="obZO4NppIWgDIUV440fT-10">
          <mxGeometry x="-0.5702" y="-4" relative="1" as="geometry">
            <mxPoint as="offset" />
          </mxGeometry>
        </mxCell>
      </root>
    </mxGraphModel>
  </diagram>
</mxfile>
